HIERARCHY
ROOT Hips
{
    OFFSET 0.000000 0.000000 0.000000
    CHANNELS 6 Xposition Yposition Zposition Zrotation Xrotation Yrotation
    JOINT Spine
    {
        OFFSET -0.000000 7.236184 0.000000
        CHANNELS 3 Zrotation Xrotation Yrotation
        JOINT Spine1
        {
            OFFSET -0.000000 20.420147 0.000000
            CHANNELS 3 Zrotation Xrotation Yrotation
            JOINT Neck
            {
                OFFSET -0.000000 20.336288 1.848754
                CHANNELS 3 Zrotation Xrotation Yrotation
                JOINT Head
                {
                    OFFSET -0.000000 12.354461 -1.764923
                    CHANNELS 3 Zrotation Xrotation Yrotation
                    End Site
                    {
                        OFFSET -0.000000 22.061537 0.000000
                    }
                }
            }
            JOINT LeftShoulder
            {
                OFFSET 3.573296 18.396038 -0.314103
                CHANNELS 3 Zrotation Xrotation Yrotation
                JOINT LeftArm
                {
                    OFFSET 10.880760 0.000000 0.000000
                    CHANNELS 3 Zrotation Xrotation Yrotation
                    JOINT LeftForeArm
                    {
                        OFFSET 27.185530 0.000000 0.000000
                        CHANNELS 3 Zrotation Xrotation Yrotation
                        JOINT LeftHand
                        {
                            OFFSET 27.825975 0.000000 0.000000
                            CHANNELS 3 Zrotation Xrotation Yrotation
                            End Site
                            {
                                OFFSET 13.236923 0.000000 0.000000
                            }
                        }
                    }
                }
            }
            JOINT RightShoulder
            {
                OFFSET -3.474926 18.396038 -0.314103
                CHANNELS 3 Zrotation Xrotation Yrotation
                JOINT RightArm
                {
                    OFFSET -10.880760 0.000000 0.000000
                    CHANNELS 3 Zrotation Xrotation Yrotation
                    JOINT RightForeArm
                    {
                        OFFSET -27.185530 0.000000 0.000000
                        CHANNELS 3 Zrotation Xrotation Yrotation
                        JOINT RightHand
                        {
                            OFFSET -27.825975 0.000000 0.000000
                            CHANNELS 3 Zrotation Xrotation Yrotation
                            End Site
                            {
                                OFFSET -13.236923 0.000000 0.000000
                            }
                        }
                    }
                }
            }
        }
    }
    JOINT LeftUpLeg
    {
        OFFSET 8.824615 0.000000 0.000000
        CHANNELS 3 Zrotation Xrotation Yrotation
        JOINT LeftLeg
        {
            OFFSET -0.000000 -35.111282 0.000000
            CHANNELS 3 Zrotation Xrotation Yrotation
            JOINT LeftFoot
            {
                OFFSET -0.000000 -42.324711 0.000000
                CHANNELS 3 Zrotation Xrotation Yrotation
                JOINT LeftToeBase
                {
                    OFFSET -0.000000 -5.735999 13.236923
                    CHANNELS 3 Zrotation Xrotation Yrotation
                    End Site
                    {
                        OFFSET -0.000000 0.000000 3.529846
                    }
                }
            }
        }
    }
    JOINT RightUpLeg
    {
        OFFSET -8.824615 0.000000 0.000000
        CHANNELS 3 Zrotation Xrotation Yrotation
        JOINT RightLeg
        {
            OFFSET -0.000000 -35.111282 0.000000
            CHANNELS 3 Zrotation Xrotation Yrotation
            JOINT RightFoot
            {
                OFFSET -0.000000 -42.324711 0.000000
                CHANNELS 3 Zrotation Xrotation Yrotation
                JOINT RightToeBase
                {
                    OFFSET -0.000000 -5.735999 13.236923
                    CHANNELS 3 Zrotation Xrotation Yrotation
                    End Site
                    {
                        OFFSET -0.000000 0.000000 3.529846
                    }
                }
            }
        }
    }
}
MOTION
Frames:    7
Frame Time:    0.008333
-6.142992    83.894958    110.669937    -0.714075    -44.038239    -175.085236    0.770692    24.682339    -0.215991    0.872220    15.825481    -0.169910    65.392082    77.604576    -68.098526    1.788173    -42.996956    -16.604763    -1.596380    23.355824    -11.811158    -56.965256    26.604477    -21.809208    8.543907    -10.095558    -5.881409    50.626575    -5.345279    9.184635    7.602503    21.830242    3.522528    37.922100    43.150291    31.777225    -19.678774    -25.522839    86.832779    -9.730721    -6.786379    -7.404428    -4.511326    -44.097191    -15.534232    1.485341    -1.740175    8.023102    -1.076262    4.083942    -9.046415    -0.776584    1.333501    0.858774    -8.559806    -39.290279    1.840683    1.267419    -8.776530    -0.851455    0.686960    6.016723    -12.591541    -0.308871    2.339016    0.333018
-6.141917    83.906677    110.715996    -0.739066    -43.942173    -175.196259    0.709912    24.456966    -0.183463    0.893585    15.899611    -0.155832    63.409378    77.386505    -66.238678    1.735049    -42.192013    -16.709276    -1.663738    23.201395    -11.475821    -56.858452    26.910337    -22.009163    8.595211    -9.974220    -5.923400    50.633320    -5.195047    9.229038    7.546571    21.727882    3.340650    37.851212    43.215378    31.970234    -19.588854    -25.456964    86.569725    -9.575723    -6.903300    -7.376809    -4.404955    -44.042027    -15.251396    1.447830    -1.731140    7.884709    -1.042869    4.076890    -9.041379    -0.782571    1.334010    0.865394    -8.475985    -39.247807    2.040991    1.243711    -8.769934    -0.843146    0.701243    6.027549    -12.660496    -0.307911    2.349084    0.331978
-6.140481    83.918991    110.763153    -0.762811    -43.843826    -175.308365    0.647545    24.208910    -0.148703    0.913709    15.985567    -0.142810    61.263908    77.134583    -64.219574    1.688752    -41.329224    -16.796209    -1.730657    23.033436    -11.116302    -56.747963    27.231113    -22.220877    8.649669    -9.851052    -5.962513    50.656864    -5.042213    9.271551    7.485288    21.615143    3.144559    37.772419    43.289101    32.185394    -19.486952    -25.380548    86.292305    -9.416121    -7.024382    -7.345435    -4.294129    -43.987347    -14.960187    1.407500    -1.718599    7.739561    -1.011166    4.068527    -9.034221    -0.787661    1.334460    0.871022    -8.391446    -39.204880    2.236995    1.223662    -8.761291    -0.826565    0.716431    6.037181    -12.731262    -0.307821    2.358847    0.331877
-6.138701    83.931946    110.811554    -0.785729    -43.743336    -175.421936    0.583252    23.935341    -0.123566    0.928903    16.084900    -0.118579    58.950363    76.840881    -62.036823    1.650996    -40.399689    -16.864326    -1.795884    22.850750    -10.730905    -56.633331    27.569088    -22.446222    8.706781    -9.726176    -5.999263    50.700264    -4.886755    9.311806    7.418048    21.490774    2.932236    37.685162    43.372337    32.425156    -19.371809    -25.292322    85.998398    -9.251576    -7.149796    -7.309454    -4.179376    -43.932888    -14.662693    1.364858    -1.703256    7.590918    -0.983858    4.060299    -9.026071    -0.791099    1.335347    0.874822    -8.306698    -39.161785    2.427947    1.207393    -8.750768    -0.802154    0.732610    6.046029    -12.802747    -0.308584    2.368121    0.332696
-6.136579    83.945518    110.861183    -0.808011    -43.640835    -175.536835    0.517133    23.633984    -0.083899    0.945627    16.198318    -0.108607    56.471519    76.496407    -59.693676    1.623383    -39.395176    -16.912067    -1.857830    22.652403    -10.319014    -56.514561    27.925930    -22.686069    8.765931    -9.600080    -6.034196    50.766941    -4.728631    9.350066    7.344489    21.353643    2.702383    37.589310    43.466038    32.690964    -19.242582    -25.191393    85.686249    -9.081691    -7.279792    -7.268007    -4.060497    -43.877991    -14.362478    1.319838    -1.686477    7.442080    -0.962899    4.053660    -9.016537    -0.792258    1.336576    0.876103    -8.222107    -39.118824    2.613205    1.195025    -8.738247    -0.773059    0.749093    6.054335    -12.871421    -0.310225    2.377365    0.334461
-6.134098    83.959595    110.911789    -0.829558    -43.536880    -175.652328    0.449415    23.304094    -0.049499    0.958253    16.326391    -0.092676    53.845882    76.092201    -57.208641    1.606259    -38.311115    -16.938988    -1.914974    22.438801    -9.882289    -56.392021    28.300993    -22.940128    8.826389    -9.473309    -6.068049    50.856705    -4.568289    9.386545    7.263882    21.203650    2.454848    37.485374    43.570477    32.983227    -19.098961    -25.077358    85.355316    -8.907390    -7.413796    -7.220374    -3.938253    -43.822651    -14.063309    1.272655    -1.668965    7.297769    -0.949050    4.049622    -9.007699    -0.791017    1.337524    0.874728    -8.138205    -39.076439    2.792120    1.186467    -8.723825    -0.745252    0.765510    6.062403    -12.931576    -0.312599    2.386550    0.337017
-6.131213    83.974136    110.963264    -0.850164    -43.431480    -175.767899    0.380228    22.944035    -0.014546    0.968611    16.469391    -0.077042    51.092880    75.617821    -54.601578    1.599201    -37.139782    -16.945324    -1.966066    22.209625    -9.421396    -56.265995    28.694736    -23.208323    8.888112    -9.345951    -6.101391    50.966465    -4.406142    9.421054    7.175546    21.040361    2.188944    37.373856    43.686275    33.302555    -18.940371    -24.949709    85.004227    -8.728373    -7.551960    -7.165927    -3.812701    -43.766655    -13.767269    1.223498    -1.650972    7.159590    -0.942378    4.048411    -8.999616    -0.787444    1.337790    0.870777    -8.055078    -39.034725    2.965576    1.181462    -8.707792    -0.726817    0.780488    6.070902    -12.976299    -0.315502    2.395070    0.340143
